<?xml version="1.0" standalone="no"?>
<!DOCTYPE svg PUBLIC "-//W3C//DTD SVG 20010904//EN"
 "http://www.w3.org/TR/2001/REC-SVG-20010904/DTD/svg10.dtd">
<svg version="1.0" xmlns="http://www.w3.org/2000/svg"
 width="700.000000pt" height="700.000000pt" viewBox="0 0 700.000000 700.000000"
 preserveAspectRatio="xMidYMid meet">
<metadata>
Created by potrace 1.14, written by Peter Selinger 2001-2017
</metadata>
<g transform="translate(0.000000,700.000000) scale(0.100000,-0.100000)"
fill="#000000" stroke="none">
<path d="M1125 6989 c-68 -11 -106 -19 -130 -26 -11 -4 -27 -8 -35 -9 -8 -2
-47 -19 -86 -39 -187 -96 -294 -261 -321 -495 -6 -52 -9 -5534 -3 -5688 6
-149 44 -305 103 -417 44 -84 155 -192 239 -233 121 -59 201 -74 413 -78 216
-3 295 5 413 42 253 81 385 266 418 588 5 46 9 1869 5 1946 -1 13 -23 15 -133
15 l-133 -1 -2 -104 c-2 -58 -4 -481 -6 -940 -2 -459 -7 -851 -10 -870 -31
-149 -95 -261 -183 -317 -85 -54 -164 -75 -299 -78 -189 -4 -297 26 -391 108
-79 70 -122 160 -144 302 -9 61 -12 712 -12 2790 0 1491 3 2739 7 2775 10 95
12 109 35 175 44 127 117 202 240 248 67 25 122 32 245 31 266 -1 410 -94 478
-309 14 -44 39 -192 36 -213 -1 -4 -1 -406 0 -893 l1 -886 123 0 c67 -1 129 1
137 3 13 3 15 115 14 936 -1 513 -4 969 -8 1012 -16 188 -80 342 -185 447
-137 137 -289 185 -592 186 -101 0 -206 -3 -234 -8z"/>
<path d="M3420 4523 c-29 -4 -167 -24 -194 -29 -48 -9 -158 -50 -230 -85 -247
-122 -412 -321 -489 -590 -33 -112 -38 -152 -41 -294 -9 -411 186 -751 529
-923 72 -36 181 -75 239 -86 11 -2 50 -9 86 -16 73 -13 254 -17 349 -7 342 37
632 241 754 532 26 60 57 156 57 176 0 7 -52 16 -150 25 -36 3 -76 7 -90 10
-14 2 -55 7 -93 10 -37 3 -90 9 -118 13 l-51 8 -15 -36 c-64 -157 -133 -230
-268 -281 -82 -31 -253 -34 -335 -6 -226 78 -353 296 -344 591 11 347 223 570
524 552 47 -3 99 -8 115 -11 57 -12 152 -66 199 -113 43 -43 116 -171 116
-203 0 -13 23 -12 250 14 25 3 70 8 100 11 78 7 155 17 157 19 8 7 -33 140
-61 201 -44 96 -93 168 -158 236 -50 52 -159 139 -174 139 -4 0 -15 6 -23 14
-41 37 -260 107 -381 122 -58 7 -218 11 -260 7z"/>
<path d="M4316 4483 c-2 -3 221 -540 350 -843 9 -19 118 -278 243 -575 l227
-540 240 -2 240 -2 69 162 c38 89 78 185 91 212 12 28 34 79 49 115 15 36 33
79 40 95 7 17 118 275 245 575 127 300 238 559 245 575 31 70 95 224 95 228 0
2 -131 4 -291 3 l-291 -1 -28 -80 c-73 -203 -269 -739 -300 -820 -10 -27 -49
-133 -86 -235 -36 -102 -69 -188 -73 -192 -3 -4 -111 284 -240 640 -129 356
-239 656 -244 668 -8 20 -15 21 -293 20 -156 0 -286 -1 -288 -3z"/>
</g>
</svg>
